<svg width="157" height="301" viewBox="0 0 157 301" fill="none" xmlns="http://www.w3.org/2000/svg">
<path d="M278.254 196.699L278.065 196.92C261.06 180.638 237.965 160.649 212.225 154.753C199.364 151.807 185.846 152.382 172.093 158.695C158.337 165.01 144.324 177.077 130.492 197.155C95.2925 248.251 97.7379 294.602 96.8933 328.687C96.4715 345.708 95.2306 359.75 87.9689 369.731C80.6921 379.733 67.435 385.581 43.1892 386.417L43.1887 386.122L43.1893 385.828C67.3863 384.993 80.4215 379.159 87.5365 369.379C94.6663 359.579 95.9176 345.74 96.3401 328.691C97.184 294.636 94.7283 248.09 130.05 196.816C143.927 176.673 158.015 164.522 171.888 158.154C185.763 151.784 199.401 151.21 212.357 154.178C238.251 160.109 261.439 180.197 278.441 196.477L278.254 196.699ZM415.167 253.597L414.979 253.818C397.973 237.536 374.878 217.547 349.138 211.651C341.573 209.918 333.782 209.404 325.849 210.559C325.886 210.567 325.924 210.576 325.962 210.585C351.856 216.516 375.044 236.604 392.046 252.884L391.859 253.106L391.67 253.328C374.664 237.046 351.569 217.056 325.828 211.16C325.299 211.039 324.768 210.925 324.237 210.816C321.631 211.269 319.011 211.906 316.379 212.74C337.125 221.2 355.59 237.41 369.76 250.977L369.571 251.199L369.382 251.42C355.057 237.705 336.412 221.359 315.504 213.022C313.345 213.742 311.179 214.595 309.007 215.593C308.93 215.628 308.853 215.664 308.777 215.7C324.108 224.567 337.781 236.765 348.838 247.351L348.65 247.573L348.461 247.794C337.312 237.119 323.545 224.85 308.131 216.004C306.403 216.828 304.67 217.742 302.935 218.752C312.927 226.055 321.963 234.266 329.714 241.687L329.526 241.911L329.337 242.131C321.527 234.653 312.431 226.393 302.386 219.076C301.285 219.729 300.184 220.422 299.081 221.154C304.021 225.397 308.632 229.68 312.86 233.728L312.672 233.95L312.483 234.172C308.214 230.085 303.561 225.762 298.579 221.489C298.209 221.739 297.839 221.994 297.468 222.253C297.87 222.635 298.269 223.016 298.664 223.394L298.477 223.616L298.287 223.837C297.857 223.425 297.422 223.011 296.984 222.594C287.138 229.581 277.226 239.797 267.405 254.053C232.206 305.149 234.652 351.5 233.807 385.585C233.385 402.606 232.145 416.647 224.883 426.628C217.606 436.63 204.349 442.478 180.103 443.315L180.103 442.725C204.3 441.89 217.335 436.056 224.45 426.277C231.58 416.477 232.832 402.638 233.255 385.589C234.099 351.534 231.642 304.988 266.964 253.714C276.775 239.472 286.692 229.226 296.564 222.194C293.8 219.574 290.886 216.875 287.835 214.169C287.123 214.466 286.41 214.774 285.697 215.102C271.942 221.416 257.929 233.484 244.096 253.563C208.897 304.659 211.343 351.009 210.498 385.094C210.077 402.115 208.836 416.157 201.574 426.138C194.297 436.14 181.04 441.988 156.794 442.825L156.794 442.529L156.794 442.235C180.991 441.4 194.026 435.566 201.141 425.787C208.271 415.987 209.523 402.147 209.945 385.098C210.789 351.043 208.333 304.497 243.656 253.223C257.532 233.081 271.62 220.93 285.492 214.562C286.113 214.277 286.734 214.006 287.354 213.744C285.214 211.855 283.01 209.961 280.743 208.093C275.029 208.875 269.241 210.518 263.41 213.195C249.655 219.51 235.641 231.576 221.809 251.655C186.609 302.751 189.055 349.103 188.211 383.188C187.789 400.208 186.549 414.25 179.287 424.231C172.01 434.233 158.753 440.081 134.507 440.918L134.507 440.622L134.507 440.328C158.704 439.493 171.738 433.659 178.853 423.879C185.983 414.079 187.236 400.24 187.658 383.191C188.502 349.136 186.045 302.59 221.367 251.316C235.244 231.173 249.333 219.023 263.205 212.655C268.895 210.043 274.544 208.406 280.123 207.588C279.579 207.143 279.033 206.698 278.482 206.256C277.5 205.618 276.511 204.992 275.514 204.38C264.816 203.083 253.731 204.408 242.489 209.569C228.733 215.884 214.72 227.95 200.888 248.029C165.688 299.125 168.134 345.476 167.289 379.561C166.868 396.582 165.626 410.624 158.365 420.605C151.088 430.606 137.831 436.454 113.586 437.291L113.586 436.701C137.783 435.866 150.817 430.032 157.932 420.253C165.062 410.453 166.314 396.614 166.736 379.565C167.58 345.51 165.124 298.964 200.446 247.69C214.322 227.547 228.411 215.396 242.284 209.028C253.18 204.026 263.929 202.599 274.317 203.653C273.761 203.319 273.202 202.991 272.641 202.665C269.635 201.583 266.585 200.672 263.496 199.964C250.635 197.019 237.118 197.593 223.365 203.906C209.61 210.221 195.596 222.288 181.764 242.366C146.564 293.462 149.009 339.813 148.165 373.898C147.743 390.919 146.503 404.961 139.241 414.942C131.964 424.944 118.708 430.791 94.4616 431.628L94.4616 431.039C118.659 430.204 131.693 424.37 138.808 414.59C145.938 404.79 147.19 390.952 147.613 373.902C148.457 339.847 146 293.301 181.322 242.028C195.198 221.885 209.287 209.734 223.16 203.365C237.035 196.995 250.673 196.421 263.629 199.388C265.723 199.868 267.798 200.441 269.854 201.096C262.444 197.054 254.672 193.844 246.642 192.005C233.781 189.06 220.263 189.633 206.511 195.946C192.755 202.261 178.742 214.328 164.91 234.407C129.71 285.503 132.155 331.854 131.311 365.939C130.889 382.96 129.649 397.002 122.387 406.983C115.11 416.985 101.853 422.832 77.6074 423.669L77.607 423.374L77.6075 423.08C101.804 422.245 114.839 416.411 121.954 406.631C129.084 396.831 130.336 382.992 130.758 365.943C131.602 331.888 129.146 285.342 164.468 234.068C178.344 213.926 192.433 201.775 206.305 195.406C220.181 189.036 233.819 188.462 246.775 191.429C255.86 193.51 264.611 197.334 272.879 202.124C273.057 202.188 273.236 202.253 273.414 202.319C261.056 193.043 247.185 185.046 232.446 181.67C219.586 178.725 206.068 179.299 192.315 185.612C178.56 191.927 164.546 203.994 150.714 224.072C115.514 275.168 117.96 321.519 117.115 355.604C116.693 372.625 115.453 386.667 108.191 396.648C100.915 406.65 87.6578 412.497 63.4118 413.334L63.4118 412.745C87.6088 411.91 100.643 406.076 107.758 396.296C114.888 386.496 116.141 372.658 116.563 355.608C117.407 321.553 114.95 275.007 150.272 223.734C164.149 203.591 178.237 191.44 192.11 185.071C205.985 178.701 219.623 178.127 232.579 181.094C248.053 184.639 262.559 193.238 275.357 203.059C276.222 203.4 277.083 203.754 277.939 204.121C278.463 204.204 278.985 204.293 279.506 204.388C263.455 189.762 243.233 174.206 221.044 169.123C208.183 166.178 194.665 166.751 180.912 173.064C167.157 179.379 153.143 191.446 139.311 211.525C104.111 262.621 106.557 308.972 105.712 343.057C105.29 360.078 104.05 374.12 96.7885 384.101C89.5118 394.102 76.2548 399.95 52.0088 400.787L52.0084 400.492L52.0089 400.198C76.2058 399.363 89.2404 393.529 96.3554 383.749C103.485 373.949 104.736 360.11 105.159 343.061C106.003 309.006 103.547 262.46 138.869 211.186C152.746 191.044 166.834 178.893 180.707 172.524C194.582 166.154 208.22 165.58 221.177 168.547C243.831 173.737 264.415 189.762 280.597 204.593C281.317 204.735 282.036 204.887 282.753 205.051C285.056 205.579 287.337 206.221 289.595 206.959C294.361 207.016 299.061 207.621 303.675 208.677C304.287 208.818 304.898 208.968 305.508 209.124C311.873 208.528 318.137 208.97 324.255 210.217C332.788 208.748 341.163 209.218 349.271 211.075C375.165 217.006 398.353 237.095 415.356 253.375L415.167 253.597ZM271.539 180.988L271.35 181.21C254.345 164.928 231.249 144.938 205.509 139.042C192.648 136.096 179.131 136.671 165.378 142.984C151.623 149.298 137.609 161.366 123.777 181.445C88.5777 232.541 91.0236 278.891 90.179 312.976C89.7572 329.997 88.5163 344.039 81.2546 354.02C73.9778 364.022 60.7208 369.87 36.4749 370.707L36.4745 370.411L36.475 370.117C60.6717 369.282 73.7064 363.448 80.8215 353.669C87.9514 343.869 89.2033 330.029 89.6258 312.98C90.4697 278.925 88.014 232.379 123.336 181.105C137.212 160.963 151.3 148.812 165.173 142.444C179.048 136.074 192.686 135.499 205.643 138.467C231.537 144.398 254.724 164.486 271.727 180.766L271.539 180.988ZM266.339 164.382L266.15 164.602C249.144 148.32 226.049 128.331 200.309 122.435C187.448 119.49 173.93 120.064 160.177 126.377C146.422 132.692 132.409 144.759 118.577 164.837C83.377 215.934 85.8225 262.284 84.9778 296.369C84.556 313.39 83.3152 327.432 76.0534 337.413C68.7766 347.415 55.5201 353.262 31.2746 354.099L31.2741 353.804L31.2746 353.51C55.4714 352.675 68.5061 346.841 75.6211 337.061C82.751 327.261 84.0021 313.422 84.4246 296.373C85.2685 262.318 82.8129 215.772 118.135 164.499C132.011 144.356 146.1 132.205 159.973 125.836C173.848 119.467 187.485 118.892 200.441 121.86C226.335 127.791 249.523 147.879 266.526 164.159L266.339 164.382ZM262.08 147.248L261.891 147.47C244.885 131.187 221.79 111.198 196.05 105.302C183.189 102.357 169.672 102.931 155.919 109.244C142.164 115.559 128.15 127.626 114.317 147.704C79.1179 198.801 81.5645 245.152 80.7199 279.236C80.2981 296.257 79.0568 310.299 71.795 320.28C64.5183 330.282 51.2614 336.129 27.0154 336.966L27.0154 336.377C51.2123 335.542 64.2468 329.708 71.3619 319.928C78.4919 310.128 79.7442 296.29 80.1667 279.241C81.0106 245.185 78.5544 198.639 113.877 147.365C127.753 127.222 141.841 115.072 155.713 108.703C169.589 102.334 183.227 101.759 196.183 104.726C222.077 110.658 245.265 130.747 262.268 147.026L262.08 147.248ZM258.094 130.087C241.088 113.805 217.993 93.8148 192.253 87.9189C179.392 84.9731 165.873 85.5479 152.121 91.8612C138.365 98.1759 124.353 110.243 110.521 130.322C75.3208 181.418 77.7663 227.768 76.9216 261.853C76.4998 278.874 75.259 292.916 67.9972 302.898C60.7205 312.899 47.4638 318.747 23.2184 319.584L23.2179 319.288L23.2184 318.994C47.4151 318.159 60.45 312.325 67.5649 302.546C74.6948 292.746 75.9459 278.907 76.3684 261.857C77.2124 227.802 74.7567 181.257 110.079 129.983C123.955 109.84 138.044 97.6891 151.916 91.3206C165.792 84.951 179.429 84.3767 192.385 87.3443C218.279 93.2754 241.467 113.364 258.47 129.643L258.094 130.087ZM254.562 112.442L254.373 112.665C237.367 96.3826 214.272 76.3927 188.532 70.4968C175.671 67.5512 162.153 68.1254 148.401 74.4386C134.645 80.7533 120.632 92.8208 106.8 112.9C71.6003 163.996 74.0455 210.346 73.2009 244.431C72.7791 261.452 71.5391 275.494 64.2773 285.475C57.0006 295.477 43.7437 301.325 19.4977 302.161L19.4972 301.866L19.4977 301.572C43.6946 300.737 56.7292 294.903 63.8442 285.124C70.9742 275.324 72.226 261.484 72.6485 244.435C73.4924 210.38 71.0364 163.834 106.358 112.561C120.234 92.418 134.323 80.267 148.196 73.8985C162.071 67.5288 175.709 66.9541 188.665 69.9217C214.559 75.8528 237.747 95.9411 254.75 112.221L254.562 112.442ZM250.632 95.1306L250.442 95.3521C233.437 79.0701 210.342 59.0805 184.602 53.1845C171.741 50.2387 158.223 50.8135 144.47 57.1268C130.715 63.4415 116.701 75.5082 102.869 95.587C67.6696 146.683 70.1154 193.033 69.2708 227.118C68.849 244.139 67.6082 258.181 60.3464 268.162C53.0697 278.164 39.8127 284.012 15.5668 284.849L15.5668 284.26C39.7636 283.425 52.7983 277.59 59.9133 267.811C67.0433 258.011 68.2956 244.172 68.7181 227.123C69.5621 193.068 67.1058 146.522 102.428 95.2477C116.304 75.1051 130.392 62.9544 144.265 56.5859C158.14 50.2161 171.778 49.6415 184.734 52.6091C210.629 58.5402 233.817 78.6293 250.819 94.9088L250.632 95.1306ZM246.091 78.2701C229.085 61.9879 205.99 41.998 180.25 36.1022C167.389 33.1564 153.87 33.7312 140.118 40.0444C126.362 46.3591 112.35 58.4263 98.5175 78.505C63.3178 129.601 65.7633 175.952 64.9187 210.037C64.4969 227.057 63.256 241.1 55.9943 251.081C48.7175 261.083 35.4604 266.931 11.2146 267.767L11.2142 267.472L11.2147 267.178C35.4113 266.343 48.4461 260.509 55.5611 250.73C62.6911 240.93 63.943 227.09 64.3655 210.041C65.2094 175.986 62.7537 129.44 98.0759 78.1662C111.952 58.0235 126.04 45.8729 139.913 39.5044C153.788 33.1346 167.426 32.5599 180.382 35.5276C206.276 41.4587 229.464 61.547 246.467 77.8264L246.091 78.2701ZM241.359 61.2841L241.171 61.5051C224.165 45.2229 201.07 25.2339 175.33 19.338C162.469 16.3922 148.951 16.967 135.198 23.2803C121.443 29.5949 107.43 41.6614 93.5975 61.74C58.3978 112.836 60.8438 159.188 59.9991 193.272C59.5773 210.293 58.3365 224.336 51.0748 234.317C43.798 244.318 30.5412 250.166 6.2959 251.003L6.29545 250.707L6.29548 250.413C30.4923 249.578 43.527 243.743 50.642 233.964C57.7717 224.164 59.0235 210.325 59.446 193.277C60.2899 159.222 57.8336 112.675 93.1559 61.4011C107.032 41.2583 121.121 29.1081 134.994 22.7396C148.869 16.3702 162.506 15.7951 175.462 18.7625C201.356 24.6936 224.544 44.7827 241.547 61.0622L241.359 61.2841ZM235.775 44.8972L235.587 45.1195C218.581 28.8374 195.486 8.84748 169.745 2.95159C156.885 0.00590563 143.367 0.580187 129.614 6.89334C115.859 13.208 101.845 25.2756 88.0132 45.3545C52.8137 96.4505 55.259 142.801 54.4144 176.886C53.9926 193.907 52.7525 207.949 45.4908 217.93C38.214 227.932 24.9571 233.779 0.711122 234.616L0.710673 234.321L0.711187 234.027C24.9079 233.192 37.9426 227.358 45.0577 217.578C52.1876 207.778 53.4395 193.939 53.862 176.89C54.7059 142.835 52.2491 96.2884 87.5711 45.0147C101.447 24.8719 115.537 12.7218 129.409 6.35326C143.285 -0.0164644 156.923 -0.591146 169.879 2.37648C195.773 8.30766 218.961 28.3959 235.963 44.6753L235.775 44.8972ZM282.635 207.273C282.386 207.04 282.137 206.806 281.886 206.573C280.525 205.914 279.153 205.286 277.771 204.692C277.641 204.671 277.511 204.653 277.38 204.634C277.859 205.011 278.335 205.389 278.809 205.769C279.646 206.313 280.477 206.866 281.303 207.426C281.747 207.369 282.192 207.319 282.635 207.273ZM280.333 205.143C280.276 205.131 280.218 205.119 280.16 205.108C280.252 205.15 280.344 205.193 280.435 205.235C280.401 205.204 280.367 205.174 280.333 205.143ZM291.862 212.031C289.35 210.503 286.791 209.06 284.19 207.724C284.122 207.729 284.053 207.732 283.985 207.738C285.101 208.786 286.193 209.824 287.261 210.846L287.072 211.069L286.884 211.29C285.689 210.146 284.463 208.983 283.209 207.809C282.821 207.845 282.432 207.886 282.043 207.93C284.443 209.578 286.793 211.288 289.089 213.039C290.015 212.678 290.939 212.342 291.862 212.031ZM288.454 213.29C286.873 212.09 285.267 210.91 283.638 209.757C285.103 210.999 286.542 212.246 287.95 213.493C288.118 213.424 288.286 213.358 288.454 213.29ZM287.648 206.964C285.984 206.462 284.308 206.013 282.62 205.627C282.226 205.537 281.83 205.45 281.434 205.366C281.69 205.602 281.947 205.836 282.2 206.072C282.907 206.414 283.611 206.766 284.312 207.125C285.427 207.041 286.539 206.986 287.648 206.964ZM298.128 221.106C295.192 218.6 292.144 216.111 288.993 213.7C288.807 213.773 288.62 213.845 288.434 213.92C291.446 216.598 294.321 219.264 297.047 221.851C297.407 221.599 297.768 221.351 298.128 221.106ZM297.214 210.494C294.675 209.392 292.102 208.403 289.497 207.548C288.109 207.533 286.715 207.564 285.317 207.646C287.784 208.941 290.213 210.327 292.598 211.791C294.141 211.293 295.679 210.86 297.214 210.494ZM301.882 218.709C298.842 216.511 295.715 214.402 292.512 212.429C291.552 212.743 290.59 213.083 289.627 213.451C292.732 215.836 295.737 218.295 298.63 220.769C299.715 220.044 300.799 219.358 301.882 218.709ZM307.518 215.657C304.444 213.916 301.305 212.313 298.11 210.887C296.493 211.25 294.871 211.683 293.245 212.193C296.385 214.144 299.449 216.222 302.43 218.384C304.128 217.386 305.824 216.477 307.518 215.657ZM303.542 209.253C299.577 208.345 295.551 207.772 291.474 207.598C293.735 208.397 295.972 209.291 298.181 210.272C300.056 209.858 301.923 209.539 303.782 209.31C303.702 209.291 303.622 209.272 303.542 209.253ZM314.669 212.696C311.641 211.523 308.567 210.52 305.453 209.719C303.339 209.92 301.214 210.237 299.08 210.678C302.165 212.084 305.195 213.653 308.164 215.348C308.377 215.248 308.589 215.149 308.801 215.052C310.762 214.152 312.719 213.371 314.669 212.696ZM322.674 210.513C317.605 209.591 312.44 209.235 307.205 209.577C310.018 210.366 312.796 211.315 315.536 212.401C317.925 211.612 320.306 210.987 322.674 210.513Z" fill="url(#paint0_radial_102_11139)" fill-opacity="0.58"/>
<defs>
<radialGradient id="paint0_radial_102_11139" cx="0" cy="0" r="1" gradientUnits="userSpaceOnUse" gradientTransform="translate(161.995 193.56) rotate(133.346) scale(202.361 204.517)">
<stop stop-color="white"/>
<stop offset="1" stop-color="#1E1E1E" stop-opacity="0"/>
<stop offset="1" stop-color="#0E0E35" stop-opacity="0"/>
<stop offset="1" stop-color="white" stop-opacity="0"/>
</radialGradient>
</defs>
</svg>
